# xmcd
#
# Track frame offsets: 
#        150
#        16998
#        34154
#        52586
#        65244
#        75767
#        89851
#        104617
#        122124
#        135915
#        156092
#        180805
#        196376
#        212656
#        228450
#        239605
#        253376
#        271573
#
# Disc length: 3824 seconds
#
# Revision: 2
# Processed by: cddbd v1.5.2PL0 Copyright (c) Steve Scherf et al.
# Submitted via: ExactAudioCopy v1.3
#
DISCID=ef0eee12
DTITLE=Songs of Ireland - CD 1
DYEAR=1900
DGENRE=Folk
TTITLE0=Spailpin - White, Orange and Green
TTITLE1=Irish Moods Orchestra - Three young Ladies drinking Whiskey be
TTITLE1=fore  Breakfast
TTITLE2=Paddy O'Connor and Friends - Ramblin´ Irishman
TTITLE3=The wild Rover
TTITLE4=Night visiting Sun
TTITLE5=Beggarman
TTITLE6=Songs of the North
TTITLE7=Wearing of the Green
TTITLE8=Molly Malone
TTITLE9=Cry of the Celts
TTITLE10=Arthur McBride
TTITLE11=Ballinnasloe
TTITLE12=The Nightingale
TTITLE13=Little Fairy, big Fairy
TTITLE14=Sweet Betsy from Pike
TTITLE15=Meeting of the Water
TTITLE16=Goodnight Irene
TTITLE17=Whiskey in the Jar
EXTD=
EXTT0=
EXTT1=
EXTT2=
EXTT3=
EXTT4=
EXTT5=
EXTT6=
EXTT7=
EXTT8=
EXTT9=
EXTT10=
EXTT11=
EXTT12=
EXTT13=
EXTT14=
EXTT15=
EXTT16=
EXTT17=
PLAYORDER=
